<svg width="512" height="512" viewBox="0 0 512 512" fill="none" xmlns="http://www.w3.org/2000/svg">
<path d="M72.5063 351.743C73.149 351.739 73.7916 351.736 74.4538 351.732C76.61 351.723 78.766 351.728 80.9223 351.733C82.4828 351.729 84.0433 351.724 85.6038 351.719C89.8944 351.707 94.1849 351.707 98.4755 351.709C103.102 351.71 107.729 351.699 112.355 351.689C121.421 351.673 130.487 351.667 139.553 351.666C146.923 351.665 154.292 351.661 161.662 351.655C182.555 351.637 203.447 351.628 224.34 351.629C226.03 351.629 226.03 351.629 227.754 351.629C228.882 351.629 230.01 351.63 231.172 351.63C249.449 351.63 267.726 351.611 286.003 351.583C304.769 351.554 323.534 351.541 342.299 351.542C352.835 351.543 363.371 351.537 373.906 351.516C382.878 351.498 391.849 351.493 400.821 351.507C405.397 351.514 409.974 351.514 414.55 351.496C418.743 351.481 422.935 351.483 427.128 351.501C428.642 351.504 430.155 351.5 431.669 351.489C443.261 351.409 452.55 352.807 461.246 361.012C467.596 368.21 470.502 376.852 470.242 386.391C469.431 395.131 466.181 401.771 460 408C453.332 413.416 447.08 416.247 438.386 416.257C437.423 416.263 437.423 416.263 436.44 416.268C434.292 416.277 432.144 416.272 429.995 416.267C428.438 416.271 426.881 416.276 425.324 416.281C421.047 416.293 416.77 416.293 412.493 416.291C407.879 416.29 403.266 416.301 398.652 416.311C389.614 416.328 380.575 416.333 371.537 416.334C364.19 416.335 356.843 416.339 349.495 416.346C328.664 416.363 307.832 416.372 287.001 416.371C285.878 416.371 284.755 416.371 283.598 416.371C282.473 416.371 281.349 416.37 280.19 416.37C261.968 416.37 243.746 416.389 225.524 416.417C206.813 416.446 188.102 416.459 169.391 416.458C158.887 416.457 148.382 416.463 137.878 416.484C128.934 416.502 119.99 416.507 111.046 416.493C106.483 416.487 101.921 416.486 97.3592 416.504C93.1793 416.519 88.9998 416.517 84.8199 416.499C83.3112 416.496 81.8024 416.5 80.2937 416.511C68.7164 416.591 59.4383 415.181 50.7539 406.988C44.4044 399.79 41.4977 391.148 41.7578 381.609C42.5686 372.874 45.8151 366.221 52 360C58.4136 354.871 64.1798 351.753 72.5063 351.743Z" fill="#17B7C3"/>
<path d="M72.5063 223.743C73.149 223.739 73.7916 223.736 74.4538 223.732C76.61 223.723 78.766 223.728 80.9223 223.733C82.4828 223.729 84.0433 223.724 85.6038 223.719C89.8944 223.707 94.1849 223.707 98.4755 223.709C103.102 223.71 107.729 223.699 112.355 223.689C121.421 223.672 130.487 223.667 139.553 223.666C146.923 223.665 154.292 223.661 161.662 223.654C182.555 223.637 203.447 223.628 224.34 223.629C226.03 223.629 226.03 223.629 227.754 223.629C228.882 223.629 230.01 223.63 231.172 223.63C249.449 223.63 267.726 223.611 286.003 223.583C304.769 223.554 323.534 223.541 342.299 223.542C352.835 223.543 363.371 223.537 373.906 223.516C382.878 223.498 391.849 223.493 400.821 223.507C405.397 223.513 409.974 223.514 414.55 223.496C418.743 223.481 422.935 223.483 427.128 223.501C428.642 223.504 430.155 223.5 431.669 223.489C443.261 223.409 452.55 224.807 461.246 233.012C467.596 240.21 470.502 248.852 470.242 258.391C469.431 267.131 466.181 273.771 460 280C453.332 285.416 447.08 288.247 438.386 288.257C437.423 288.263 437.423 288.263 436.44 288.268C434.292 288.277 432.144 288.272 429.995 288.267C428.438 288.271 426.881 288.276 425.324 288.281C421.047 288.293 416.77 288.293 412.493 288.291C407.879 288.29 403.266 288.301 398.652 288.311C389.614 288.327 380.575 288.333 371.537 288.334C364.19 288.335 356.843 288.339 349.495 288.345C328.664 288.363 307.832 288.372 287.001 288.371C285.878 288.371 284.755 288.371 283.598 288.371C282.473 288.371 281.349 288.37 280.19 288.37C261.968 288.37 243.746 288.389 225.524 288.417C206.813 288.446 188.102 288.459 169.391 288.458C158.887 288.457 148.382 288.463 137.878 288.484C128.934 288.502 119.99 288.507 111.046 288.493C106.483 288.486 101.921 288.486 97.3592 288.504C93.1793 288.519 88.9998 288.517 84.8199 288.499C83.3112 288.496 81.8024 288.5 80.2937 288.511C68.7164 288.591 59.4383 287.181 50.7539 278.988C44.4044 271.79 41.4977 263.148 41.7578 253.609C42.5686 244.874 45.8151 238.221 52 232C58.4136 226.871 64.1798 223.753 72.5063 223.743Z" fill="#17B7C3"/>
<path d="M72.5063 95.7427C73.149 95.7392 73.7916 95.7357 74.4538 95.7321C76.61 95.7228 78.766 95.7277 80.9223 95.7326C82.4828 95.7288 84.0433 95.7242 85.6038 95.7189C89.8944 95.7066 94.1849 95.7069 98.4755 95.7092C103.102 95.7096 107.729 95.6986 112.355 95.6891C121.421 95.6725 130.487 95.667 139.553 95.6659C146.923 95.665 154.292 95.6608 161.662 95.6545C182.555 95.6369 203.447 95.6277 224.34 95.6292C226.03 95.6293 226.03 95.6293 227.754 95.6294C228.882 95.6295 230.01 95.6296 231.172 95.6297C249.449 95.6305 267.726 95.6113 286.003 95.5831C304.769 95.5544 323.534 95.5406 342.299 95.5423C352.835 95.543 363.371 95.5375 373.906 95.516C382.878 95.4977 391.849 95.4934 400.821 95.507C405.397 95.5135 409.974 95.5136 414.55 95.4963C418.743 95.4805 422.935 95.4834 427.128 95.5008C428.642 95.5039 430.155 95.5003 431.669 95.4891C443.261 95.4093 452.55 96.8073 461.246 105.012C467.596 112.21 470.502 120.852 470.242 130.391C469.431 139.131 466.181 145.771 460 152C453.332 157.416 447.08 160.247 438.386 160.257C437.423 160.263 437.423 160.263 436.44 160.268C434.292 160.277 432.144 160.272 429.995 160.267C428.438 160.271 426.881 160.276 425.324 160.281C421.047 160.293 416.77 160.293 412.493 160.291C407.879 160.29 403.266 160.301 398.652 160.311C389.614 160.328 380.575 160.333 371.537 160.334C364.19 160.335 356.843 160.339 349.495 160.346C328.664 160.363 307.832 160.372 287.001 160.371C285.878 160.371 284.755 160.371 283.598 160.371C282.473 160.371 281.349 160.37 280.19 160.37C261.968 160.37 243.746 160.389 225.524 160.417C206.813 160.446 188.102 160.459 169.391 160.458C158.887 160.457 148.382 160.463 137.878 160.484C128.934 160.502 119.99 160.507 111.046 160.493C106.483 160.487 101.921 160.486 97.3592 160.504C93.1793 160.519 88.9998 160.517 84.8199 160.499C83.3112 160.496 81.8024 160.5 80.2937 160.511C68.7164 160.591 59.4383 159.181 50.7539 150.988C44.4044 143.79 41.4977 135.148 41.7578 125.609C42.5686 116.874 45.8151 110.221 52 104C58.4136 98.8714 64.1798 95.753 72.5063 95.7427Z" fill="#17B7C3"/>
</svg>
