<svg width="50" height="50" viewBox="0 0 50 50" fill="none" xmlns="http://www.w3.org/2000/svg">
<g clip-path="url(#clip0_7_18)">
<path d="M-9.28878e-05 17.3828C16.4999 17.3828 32.9999 17.3828 49.9999 17.3828C49.9999 43.5959 49.9999 43.5959 46.5377 47.1188C44.819 48.768 42.2957 50.0085 39.8805 50.0131C39.7729 50.0135 39.6653 50.014 39.5545 50.0144C39.4373 50.0144 39.3201 50.0144 39.1994 50.0144C39.0741 50.0147 38.9489 50.0151 38.8198 50.0155C38.4727 50.0164 38.1255 50.0168 37.7784 50.0171C37.4037 50.0174 37.0291 50.0184 36.6544 50.0192C35.7497 50.0212 34.845 50.0221 33.9402 50.023C33.5136 50.0234 33.0869 50.024 32.6603 50.0245C31.2408 50.0261 29.8213 50.0276 28.4019 50.0283C28.0337 50.0284 27.6656 50.0286 27.2974 50.0288C27.2059 50.0289 27.1144 50.0289 27.0201 50.029C25.5399 50.0298 24.0596 50.0322 22.5793 50.0354C21.0575 50.0387 19.5358 50.0404 18.014 50.0407C17.1604 50.0409 16.3068 50.0418 15.4532 50.0443C14.7258 50.0464 13.9984 50.0472 13.271 50.0462C12.9006 50.0458 12.5301 50.046 12.1596 50.0479C8.45285 50.0659 5.57875 49.1889 2.88115 46.5378C1.95316 45.5707 1.28137 44.4553 0.744536 43.2312C0.714308 43.1644 0.68408 43.0975 0.652936 43.0286C-2.62441 35.1302 -9.28878e-05 25.9342 -9.28878e-05 17.3828ZM17.4804 25.1953C17.0945 25.8168 16.8833 26.3713 16.8801 27.1027C16.8794 27.2127 16.8787 27.3226 16.8779 27.4358C16.8777 27.556 16.8774 27.6762 16.8772 27.8C16.8765 27.9269 16.8759 28.0538 16.8752 28.1846C16.8732 28.6053 16.8721 29.0261 16.8712 29.4468C16.8708 29.592 16.8704 29.7372 16.87 29.8824C16.8681 30.565 16.8667 31.2476 16.8659 31.9302C16.8649 32.7161 16.8624 33.5021 16.8584 34.288C16.8555 34.8967 16.854 35.5054 16.8537 36.1141C16.8535 36.477 16.8526 36.84 16.8502 37.2029C16.8474 37.6087 16.8479 38.0144 16.8485 38.4201C16.8473 38.5389 16.846 38.6577 16.8448 38.7801C16.8509 39.7928 17.0532 40.6815 17.7665 41.4333C18.4858 42.0319 19.2953 42.2697 20.2147 42.1875C21.0496 41.9641 21.7997 41.5453 22.5524 41.1316C22.6719 41.0666 22.7915 41.0017 22.9111 40.9369C23.1589 40.8025 23.4065 40.6678 23.6539 40.5329C24.2351 40.2164 24.8191 39.9053 25.4027 39.5935C26.3865 39.0667 27.3697 38.5388 28.3518 38.009C28.8924 37.7174 29.4334 37.4269 29.9754 37.138C32.4404 36.0346 32.4404 36.0346 34.0388 34.0225C34.1928 33.1885 34.168 32.432 33.7672 31.6776C33.2386 30.9701 32.6337 30.5709 31.8542 30.1697C31.6437 30.0586 31.4333 29.9474 31.2228 29.8363C31.1144 29.7796 31.0061 29.7229 30.8944 29.6645C30.3635 29.3857 29.8365 29.0998 29.309 28.8147C29.0956 28.6998 28.8823 28.585 28.6689 28.4702C27.9264 28.0707 27.184 27.671 26.4417 27.2712C25.9055 26.9824 25.3693 26.6939 24.8328 26.4057C24.6159 26.2891 24.399 26.1725 24.182 26.0559C24.0772 25.9996 23.9724 25.9433 23.8644 25.8853C23.3666 25.6175 22.8701 25.3477 22.3762 25.0729C22.2871 25.0233 22.198 24.9738 22.1062 24.9228C21.9415 24.831 21.7769 24.7387 21.6127 24.6459C20.1589 23.8352 18.6168 23.8856 17.4804 25.1953Z" fill="#17B7C3"/>
<path d="M22.4609 0C26.9727 0 31.4844 0 36.1328 0C35.993 0.419491 35.8575 0.77024 35.6626 1.15995C35.6066 1.27236 35.5506 1.38478 35.4929 1.5006C35.431 1.62377 35.3692 1.74693 35.3073 1.87008C35.242 2.00084 35.1767 2.13162 35.1114 2.26241C34.9346 2.61646 34.7573 2.97025 34.58 3.324C34.3944 3.69424 34.2093 4.06468 34.0241 4.43509C33.7133 5.05657 33.4022 5.6779 33.0909 6.29914C32.7307 7.01812 32.3708 7.7373 32.0112 8.4566C31.6654 9.14831 31.3194 9.83991 30.9732 10.5314C30.8257 10.826 30.6784 11.1205 30.531 11.4151C30.3579 11.7614 30.1845 12.1076 30.0109 12.4537C29.9471 12.581 29.8834 12.7084 29.8197 12.8358C29.7331 13.009 29.6463 13.1821 29.5594 13.3552C29.4865 13.5008 29.4865 13.5008 29.4121 13.6494C29.2969 13.8672 29.2969 13.8672 29.1992 13.9648C29.0225 13.9743 28.8454 13.9767 28.6684 13.9766C28.5533 13.9767 28.4381 13.9769 28.3194 13.977C28.1919 13.9766 28.0645 13.9763 27.9331 13.9759C27.7984 13.9759 27.6637 13.9759 27.529 13.976C27.1622 13.976 26.7954 13.9754 26.4286 13.9747C26.0456 13.9741 25.6627 13.9741 25.2798 13.974C24.5542 13.9737 23.8286 13.9729 23.103 13.9719C22.2771 13.9708 21.4512 13.9702 20.6254 13.9698C18.926 13.9687 17.2267 13.967 15.5273 13.9648C16.2318 12.4522 16.9747 10.9593 17.7222 9.46765C17.8731 9.16635 18.0238 8.86495 18.1745 8.56355C18.6123 7.6885 19.0504 6.81362 19.4885 5.93872C20.4694 3.97894 21.4503 2.01917 22.4609 0Z" fill="#17B7C3"/>
<path d="M11.7596 -0.0381471C11.9627 -0.0374162 12.1659 -0.0368613 12.369 -0.0364722C12.8971 -0.0349992 13.4251 -0.0311781 13.9531 -0.0268222C14.4945 -0.0227861 15.036 -0.0210337 15.5775 -0.0190736C16.635 -0.0149168 17.6925 -0.00827276 18.75 -1.468e-07C18.0469 1.50982 17.3054 2.99994 16.5594 4.48884C16.3919 4.82319 16.2246 5.15766 16.0573 5.49212C15.7421 6.12229 15.4267 6.75237 15.1111 7.3824C14.6837 8.236 14.2566 9.08976 13.8294 9.94351C13.1587 11.2841 12.4875 12.6244 11.8164 13.9648C7.91699 13.9648 4.01758 13.9648 0 13.9648C0 8.41496 0 8.41496 0.744629 6.7688C0.777894 6.69313 0.811159 6.61745 0.845432 6.53949C1.45925 5.18726 2.2658 4.06735 3.32031 3.02734C3.43739 2.90876 3.43739 2.90876 3.55682 2.78778C4.48338 1.89854 5.59812 1.2574 6.7688 0.744629C6.83564 0.714408 6.90247 0.684188 6.97134 0.653052C8.50899 0.014921 10.1192 -0.0558023 11.7596 -0.0381471Z" fill="#17B7C3"/>
<path d="M40.131 -0.00190735C43.0068 0.225245 45.5429 1.68888 47.4609 3.80859C49.9372 6.82748 50 9.98266 50 13.9648C44.3926 13.9648 38.7852 13.9648 33.0078 13.9648C33.1476 13.5454 33.2831 13.1946 33.4781 12.8049C33.5341 12.6925 33.5901 12.5801 33.6478 12.4642C33.7096 12.3411 33.7715 12.2179 33.8333 12.0948C33.8987 11.964 33.964 11.8332 34.0292 11.7024C34.206 11.3484 34.3833 10.9946 34.5606 10.6408C34.7462 10.2706 34.9313 9.90017 35.1165 9.52975C35.4273 8.90827 35.7384 8.28694 36.0497 7.66571C36.4099 6.94673 36.7698 6.22754 37.1294 5.50824C37.4752 4.81653 37.8213 4.12493 38.1674 3.4334C38.3149 3.13886 38.4623 2.8443 38.6096 2.54971C38.7828 2.20342 38.9562 1.85723 39.1297 1.51113C39.1935 1.3838 39.2572 1.25645 39.3209 1.12905C39.4075 0.955834 39.4944 0.782745 39.5812 0.609665C39.6298 0.512575 39.6785 0.415486 39.7286 0.315454C39.8951 0.000465382 39.8951 0.000465372 40.131 -0.00190735Z" fill="#17B7C3"/>
</g>
<defs>
<clipPath id="clip0_7_18">
<rect width="50" height="50" fill="white"/>
</clipPath>
</defs>
</svg>
