<svg width="53" height="30" viewBox="0 0 53 30" fill="none" xmlns="http://www.w3.org/2000/svg">
<g clip-path="url(#clip0_9_82)">
<path d="M30.5176 0.98857C31.1315 1.90501 31.1756 2.83702 31.171 3.90949C31.1708 4.02705 31.1706 4.14461 31.1704 4.26573C31.1651 5.38673 31.1359 6.50701 31.1063 7.6276C30.743 11.0537 30.743 11.0537 31.6757 14.1837C31.987 14.3992 32.1634 14.5023 32.5446 14.4667C34.8741 13.7851 36.6862 9.85342 37.751 7.95305C38.5545 6.48777 39.3405 4.9938 39.9694 3.44632C40.0054 3.35842 40.0414 3.27052 40.0785 3.17996C40.1462 3.01274 40.2123 2.84489 40.2764 2.67633C40.4925 2.13982 40.7098 1.85472 41.1991 1.53066C41.6344 1.39454 42.0765 1.40915 42.5291 1.40443C42.6216 1.40309 42.714 1.40175 42.8093 1.40038C43.1151 1.39611 43.4209 1.39259 43.7267 1.38916C43.9397 1.38654 44.1528 1.38391 44.3658 1.38127C44.8126 1.37586 45.2594 1.37087 45.7063 1.36612C46.2774 1.35997 46.8484 1.35239 47.4194 1.34444C47.8597 1.33855 48.2999 1.33363 48.7401 1.32898C48.9505 1.3266 49.161 1.32387 49.3714 1.32078C49.6666 1.31655 49.9619 1.31369 50.2572 1.31116C50.3432 1.30963 50.4292 1.3081 50.5178 1.30653C51.3258 1.30227 52.093 1.41613 52.7928 1.83678C53.1348 2.34238 53.0617 2.87919 52.9999 3.46944C52.2301 6.37762 49.8449 9.03422 48.0356 11.36C45.5568 14.0851 45.5568 14.0851 44.5116 17.347C44.8148 18.3527 45.7586 19.0924 46.4849 19.8151C46.5335 19.8635 46.5821 19.912 46.6322 19.9619C46.9102 20.2346 47.1962 20.4931 47.4933 20.7454C47.972 21.1546 48.419 21.5919 48.8657 22.0345C48.9448 22.112 49.0238 22.1896 49.1053 22.2695C49.5968 22.7548 50.065 23.2531 50.5155 23.7756C50.5707 23.839 50.6259 23.9024 50.6828 23.9677C51.3066 24.6891 51.9001 25.4185 52.3982 26.2309C52.4357 26.2916 52.4731 26.3522 52.5118 26.4147C52.9388 27.1387 53.087 27.8471 52.9999 28.6735C52.8317 29.1398 52.5019 29.3355 52.0921 29.5903C51.5738 29.8229 50.9994 29.8151 50.4386 29.8295C50.3608 29.8319 50.2829 29.8342 50.2027 29.8366C49.9465 29.8441 49.6904 29.851 49.4342 29.8577C49.2548 29.8627 49.0753 29.8676 48.8958 29.8725C48.5197 29.8827 48.1437 29.8925 47.7676 29.9021C47.2887 29.9144 46.8098 29.9281 46.3309 29.9423C45.9601 29.953 45.5892 29.9626 45.2183 29.9719C45.0419 29.9765 44.8656 29.9815 44.6892 29.987C42.2676 30.0602 40.5599 29.5272 38.7539 27.8835C38.1907 27.3565 37.6529 26.8184 37.1462 26.2381C36.8525 25.9039 36.5506 25.5771 36.2493 25.2496C36.0502 25.0298 35.8588 24.8055 35.6675 24.5791C35.0481 23.8791 34.235 23.133 33.2737 23.0166C32.8584 23.0687 32.704 23.1956 32.4003 23.4694C32.3319 23.4694 32.2636 23.4694 32.1932 23.4694C32.1482 23.559 32.1482 23.559 32.1022 23.6504C32.032 23.7879 31.9604 23.9247 31.8863 24.0602C31.2838 25.1812 31.1437 26.3245 31.1136 27.5756C31.0892 28.1633 31.0117 28.7733 30.6085 29.2379C29.9194 29.8454 29.1757 29.8274 28.3029 29.8267C28.1278 29.8273 28.1278 29.8273 27.9492 29.828C27.702 29.8286 27.4548 29.8286 27.2076 29.8282C26.8351 29.8279 26.4626 29.8302 26.0901 29.8328C24.7779 29.8364 23.5349 29.7871 22.2557 29.4898C22.1669 29.4701 22.0781 29.4504 21.9866 29.43C19.3643 28.8045 16.9608 27.3818 14.8662 25.7421C14.7227 25.6306 14.5763 25.5226 14.4294 25.4154C13.1197 24.4422 11.9654 23.221 11.005 21.9155C10.8513 21.7112 10.6921 21.5119 10.5318 21.3126C9.7167 20.2997 8.96021 19.2597 8.22992 18.186C8.08617 17.9768 7.93975 17.7699 7.79144 17.5638C5.14907 13.8826 3.07301 9.76847 1.1245 5.69702C1.03843 5.51736 0.951898 5.33792 0.865346 5.15849C0.714389 4.84319 0.566752 4.52663 0.420401 4.20923C0.377017 4.11893 0.333633 4.02863 0.288934 3.9356C0.0101909 3.31614 -0.120436 2.71863 -0.000131188 2.04087C0.206708 1.74124 0.465115 1.57922 0.818874 1.46899C1.05522 1.42485 1.27685 1.41224 1.51737 1.40767C1.61312 1.40564 1.70886 1.4036 1.8075 1.40151C1.911 1.3998 2.0145 1.39809 2.12113 1.39633C2.22943 1.3942 2.33774 1.39206 2.44932 1.38985C2.80169 1.38308 3.15407 1.37707 3.50646 1.37122C3.68531 1.36813 3.68531 1.36813 3.86777 1.36498C4.57765 1.35279 5.28754 1.34173 5.99745 1.33136C6.28297 1.32705 6.56848 1.32228 6.85399 1.31726C7.28441 1.30982 7.71479 1.30505 8.14525 1.30107C8.2658 1.29889 8.38634 1.29671 8.51054 1.29447C9.43101 1.2907 10.1309 1.46207 10.869 2.04087C11.2511 2.53924 11.4757 3.0731 11.7165 3.64801C12.7595 6.07061 14.0029 8.4268 15.3202 10.7143C15.3623 10.788 15.4043 10.8617 15.4477 10.9375C15.9509 11.8132 16.5012 12.6141 17.1835 13.3674C17.2439 13.4366 17.3044 13.5058 17.3666 13.5771C17.9019 14.1528 18.5372 14.5591 19.3379 14.6238C19.8244 14.4263 19.9783 14.1383 20.1854 13.6735C21.2432 10.9244 21.1814 6.69205 20.2178 3.90949C19.9428 3.32732 19.5626 2.91894 18.9503 2.67573C18.4713 2.5084 17.9852 2.37247 17.494 2.24495C17.5748 1.74137 17.7207 1.56366 18.1151 1.22454C18.1739 1.17258 18.2328 1.12062 18.2934 1.06709C19.6154 -0.0166408 21.753 0.0721009 23.3944 0.0319371C23.5044 0.0289837 23.5044 0.0289837 23.6166 0.0259706C29.3372 -0.123274 29.3372 -0.123274 30.5176 0.98857Z" fill="#17B7C3"/>
</g>
<defs>
<clipPath id="clip0_9_82">
<rect width="53" height="30" fill="white"/>
</clipPath>
</defs>
</svg>
